<?xml version="1.0" encoding="UTF-8" standalone="no"?>
<!-- Created with Inkscape (http://www.inkscape.org/) -->

<svg
   xmlns:dc="http://purl.org/dc/elements/1.1/"
   xmlns:cc="http://creativecommons.org/ns#"
   xmlns:rdf="http://www.w3.org/1999/02/22-rdf-syntax-ns#"
   xmlns:svg="http://www.w3.org/2000/svg"
   xmlns="http://www.w3.org/2000/svg"
   xmlns:sodipodi="http://sodipodi.sourceforge.net/DTD/sodipodi-0.dtd"
   xmlns:inkscape="http://www.inkscape.org/namespaces/inkscape"
   width="800"
   height="800"
   viewBox="0 0 211.66666 149.6633"
   version="1.1"
   id="svg8"
   inkscape:version="0.92.4 (5da689c313, 2019-01-14)"
   sodipodi:docname="wolf.svg">
  <defs
     id="defs2">
    <inkscape:path-effect
       effect="bend_path"
       id="path-effect4722"
       is_visible="true"
       bendpath="M 20.640596,129.69328 H 169.25201"
       prop_scale="0.49"
       scale_y_rel="false"
       vertical="true" />
    <inkscape:path-effect
       effect="copy_rotate"
       starting_point="104.69941,104.97568"
       origin="103.56548,104.97568"
       id="path-effect4555"
       is_visible="true"
       copies_to_360="true"
       fuse_paths="false"
       starting_angle="0"
       rotation_angle="60"
       num_copies="6" />
    <inkscape:perspective
       sodipodi:type="inkscape:persp3d"
       inkscape:vp_x="0 : 105 : 1"
       inkscape:vp_y="0 : 707.07069 : 0"
       inkscape:vp_z="210 : 105 : 1"
       inkscape:persp3d-origin="105 : 69.999998 : 1"
       id="perspective4534" />
  </defs>
  <sodipodi:namedview
     id="base"
     pagecolor="#ffffff"
     bordercolor="#666666"
     borderopacity="1.0"
     inkscape:pageopacity="0.0"
     inkscape:pageshadow="2"
     inkscape:zoom="0.49497475"
     inkscape:cx="-427.88768"
     inkscape:cy="546.88783"
     inkscape:document-units="px"
     inkscape:current-layer="layer5"
     showgrid="true"
     inkscape:window-width="1920"
     inkscape:window-height="1049"
     inkscape:window-x="0"
     inkscape:window-y="0"
     inkscape:window-maximized="1"
     showguides="true"
     units="px"
     showborder="true"
     inkscape:pagecheckerboard="false"
     borderlayer="false">
    <inkscape:grid
       type="xygrid"
       id="grid840" />
  </sodipodi:namedview>
  <metadata
     id="metadata5">
    <rdf:RDF>
      <cc:Work
         rdf:about="">
        <dc:format>image/svg+xml</dc:format>
        <dc:type
           rdf:resource="http://purl.org/dc/dcmitype/StillImage" />
        <dc:title></dc:title>
      </cc:Work>
    </rdf:RDF>
  </metadata>
  <g
     inkscape:groupmode="layer"
     id="layer4"
     inkscape:label="Layer 4"
     style="display:none"
     sodipodi:insensitive="true"
     transform="translate(0,-85.333322)">
    <path
       style="fill:#002780;fill-opacity:0.99607843;stroke:#000000;stroke-width:4.56500006;stroke-linecap:butt;stroke-linejoin:miter;stroke-miterlimit:4;stroke-dasharray:none;stroke-opacity:1"
       d="m -160.09468,58.888037 0.75596,-10.583335 -6.80357,-12.851191 -11.33929,15.119045 -14.3631,11.339291 -11.33928,16.63095 -10.58333,5.29167 1.5119,6.04761 6.80357,3.77977 -9.82739,17.386903 -11.33928,17.38691 -21.16667,21.92261 -30.23809,33.26191 -20.41071,27.21428 1.5119,6.04762 -22.67857,3.77976 -15.11905,-9.82738 -18.89881,0.75596 -12.09524,4.53572 5.29167,6.80357 12.09524,-2.26787 18.89881,3.77976 34.01785,0.75596 9.82739,1.51191 27.21428,3.77976 36.28571,1.51191 8.31549,-13.60715 13.60714,-18.14286 5.29167,-4.53571 -0.75596,27.21429 4.53572,16.63095 16.63095,-2.26785 -4.53571,-12.09525 -0.75596,-29.48214 5.29167,-20.41072 11.33929,-27.97023 3.77976,-21.16667 4.53571,-16.63095 -3.02381,-23.434533 1.5119,-18.14285 9.07143,-10.58334 -3.0238,-3.023811 -3.02381,-1.5119 z"
       id="path4619"
       inkscape:connector-curvature="0" />
  </g>
  <g
     inkscape:groupmode="layer"
     id="layer5"
     inkscape:label="Layer 5"
     style="display:inline"
     transform="translate(0,-85.333322)">
    <g
       aria-label="WOLFITGUIDE"
       transform="matrix(0.91169406,0,0,1.0968592,1.6227145,59.545604)"
       style="font-style:normal;font-weight:normal;font-size:28.57761002px;line-height:7;font-family:sans-serif;letter-spacing:2.0837841px;word-spacing:0px;fill:#002780;fill-opacity:1;stroke:none;stroke-width:0.29768339"
       id="text4700">
      <path
         d="m 22.024825,154.81016 q -0.139539,0 -0.25117,0.11163 -0.111632,0.11163 -0.111632,0.25117 v 12.47479 q 0,2.26054 -1.604699,3.87919 -1.618654,1.61866 -3.879188,1.61866 -2.260533,0 -3.879187,-1.61866 -1.618654,-1.61865 -1.618654,-3.87919 v -12.47479 q 0,-0.1535 -0.09768,-0.25117 -0.111631,-0.11163 -0.279078,-0.11163 -0.139539,0 -0.251171,0.11163 -0.1116309,0.11163 -0.1116309,0.25117 v 12.47479 q 0,2.56752 1.8279619,4.40944 1.841917,1.82796 4.409436,1.82796 2.56752,0 4.395482,-1.82796 1.841917,-1.84192 1.841917,-4.40944 v -12.47479 q 0,-0.1535 -0.111632,-0.25117 -0.111631,-0.11163 -0.279078,-0.11163 z m 0.795373,-0.41862 q 0.334894,0.32094 0.334894,0.78142 v 12.47479 q 0,2.87451 -2.051225,4.92574 -2.051225,2.05122 -4.925731,2.05122 -2.874505,0 -4.92573,-2.05122 -2.0512252,-2.05123 -2.0512252,-4.92574 v -12.47479 q 0,-0.44653 0.32094,-0.78142 0.3348938,-0.32094 0.7814192,-0.32094 0.474433,0 0.795373,0.32094 0.334894,0.32094 0.334894,0.78142 v 12.47479 q 0,1.95355 1.395391,3.34894 1.395391,1.39539 3.348938,1.39539 1.953548,0 3.348939,-1.39539 1.395391,-1.39539 1.395391,-3.34894 v -12.47479 q 0,-0.44653 0.32094,-0.78142 0.334894,-0.32094 0.781419,-0.32094 0.474433,0 0.795373,0.32094 z m -3.767556,0.41862 q -0.139539,0 -0.25117,0.11163 -0.111632,0.11163 -0.111632,0.25117 v 12.47479 q 0,1.03259 -0.739557,1.77215 -0.739557,0.75351 -1.772147,0.75351 -1.032589,0 -1.772146,-0.75351 -0.753512,-0.73956 -0.753512,-1.77215 v -12.47479 q 0,-0.1535 -0.09768,-0.25117 -0.111631,-0.11163 -0.279078,-0.11163 -0.139539,0 -0.251171,0.11163 -0.111631,0.11163 -0.111631,0.25117 v 12.47479 q 0,1.33958 0.96282,2.3024 0.96282,0.96282 2.302395,0.96282 1.339576,0 2.302396,-0.96282 0.96282,-0.96282 0.96282,-2.3024 v -12.47479 q 0,-0.1535 -0.111632,-0.25117 -0.111631,-0.11163 -0.279078,-0.11163 z m 0.795373,-0.41862 q 0.334894,0.32094 0.334894,0.78142 v 12.47479 q 0,1.64657 -1.186083,2.83265 -1.172128,1.17213 -2.81869,1.17213 -1.646561,0 -2.832644,-1.17213 -1.172128,-1.18608 -1.172128,-2.83265 v -12.47479 q 0,-0.44653 0.32094,-0.78142 0.334894,-0.32094 0.781419,-0.32094 0.474433,0 0.795373,0.32094 0.334894,0.32094 0.334894,0.78142 v 12.47479 q 0,0.72561 0.516294,1.25586 0.530249,0.51629 1.255852,0.51629 0.725604,0 1.255852,-0.51629 0.516295,-0.53025 0.516295,-1.25586 v -12.47479 q 0,-0.44653 0.32094,-0.78142 0.334894,-0.32094 0.781419,-0.32094 0.474433,0 0.795373,0.32094 z m 11.121267,0.41862 q -0.153493,0 -0.265124,0.11163 -0.09768,0.11163 -0.09768,0.25117 v 12.47479 q 0,2.26054 -1.618653,3.87919 -1.618654,1.61866 -3.879187,1.61866 -0.683742,0 -1.339576,-0.18141 -0.516295,-0.12558 -0.976774,-0.34884 -0.25117,0.30698 -0.502341,0.58606 0.544203,0.27908 1.144221,0.44653 0.809327,0.23721 1.67447,0.23721 2.567519,0 4.409435,-1.82796 1.827963,-1.84192 1.827963,-4.40944 v -12.47479 q 0,-0.1535 -0.111632,-0.25117 -0.111631,-0.11163 -0.265124,-0.11163 z m 0.781419,-0.41862 q 0.334894,0.32094 0.334894,0.78142 v 12.47479 q 0,2.87451 -2.051225,4.92574 -2.051225,2.05122 -4.92573,2.05122 -0.96282,0 -1.883779,-0.26512 -0.920958,-0.25117 -1.744238,-0.75352 l -0.404664,-0.25117 q 0.739557,-0.61397 1.493069,-1.68842 l 0.279078,0.15349 q 0.516295,0.27908 1.102359,0.43258 0.57211,0.13953 1.158175,0.13953 1.953547,0 3.348938,-1.39539 1.395391,-1.39539 1.395391,-3.34894 v -12.47479 q 0,-0.44653 0.334894,-0.78142 0.32094,-0.32094 0.781419,-0.32094 0.460479,0 0.781419,0.32094 z m -3.753602,0.41862 q -0.153493,0 -0.265124,0.11163 -0.09768,0.11163 -0.09768,0.25117 v 12.47479 q 0,1.03259 -0.753511,1.77215 -0.739557,0.75351 -1.772146,0.75351 -0.474433,0 -0.96282,-0.19535 -0.09768,0.39071 -0.237217,0.69769 0.57211,0.23722 1.200037,0.23722 1.339575,0 2.302395,-0.96282 0.96282,-0.96282 0.96282,-2.3024 v -12.47479 q 0,-0.1535 -0.111632,-0.25117 -0.111631,-0.11163 -0.265124,-0.11163 z m 0.781419,-0.41862 q 0.334894,0.32094 0.334894,0.78142 v 12.47479 q 0,1.64657 -1.172129,2.83265 -1.186082,1.17213 -2.832643,1.17213 -1.227945,-0.0698 -2.176811,-0.62793 0.502341,-0.96282 0.725604,-2.10704 0.64188,0.40466 1.451207,0.50234 0.725603,0 1.255852,-0.51629 0.516294,-0.53025 0.516294,-1.25586 v -12.47479 q 0,-0.44653 0.334894,-0.78142 0.32094,-0.32094 0.781419,-0.32094 0.460479,0 0.781419,0.32094 z"
         style="font-style:normal;font-variant:normal;font-weight:normal;font-stretch:normal;font-size:28.57761002px;line-height:7;font-family:'MACCOS Demo';-inkscape-font-specification:'MACCOS Demo';letter-spacing:2.0837841px;fill:#002780;fill-opacity:1;stroke-width:0.29768339"
         id="path863"
         inkscape:connector-curvature="0" />
      <path
         d="m 46.811622,174.62471 q -4.241989,0 -7.256033,-3.01404 -3.014045,-3.01405 -3.014045,-7.25604 0,-4.25594 3.014045,-7.26999 3.014044,-3.01404 7.256033,-3.01404 4.255943,0 7.256034,3.01404 3.014045,3.01405 3.014045,7.26999 0,4.24199 -3.014045,7.25604 -3.000091,3.01404 -7.256034,3.01404 z m 0,-19.8006 q -3.935003,0 -6.739739,2.79078 -2.790782,2.79078 -2.790782,6.73974 0,3.935 2.790782,6.72579 2.804736,2.80473 6.739739,2.80473 3.948957,0 6.739739,-2.80473 2.790783,-2.79079 2.790783,-6.72579 0,-3.94896 -2.790783,-6.73974 -2.790782,-2.79078 -6.739739,-2.79078 z m 0,18.30753 q -3.628017,0 -6.20949,-2.56752 -2.581474,-2.58147 -2.581474,-6.20949 0,-3.64197 2.581474,-6.20949 2.581473,-2.58147 6.20949,-2.58147 3.641971,0 6.209491,2.58147 2.581473,2.56752 2.581473,6.20949 0,3.62802 -2.581473,6.20949 -2.56752,2.56752 -6.209491,2.56752 z m 0,-16.82842 q -3.32103,0 -5.679241,2.35822 -2.358211,2.35821 -2.358211,5.69319 0,3.32103 2.358211,5.67924 2.358211,2.35821 5.679241,2.35821 3.334985,0 5.693196,-2.35821 2.358211,-2.35821 2.358211,-5.67924 0,-3.33498 -2.358211,-5.69319 -2.358211,-2.35822 -5.693196,-2.35822 z m 0,15.34931 q -3.014044,0 -5.162947,-2.14891 -2.134948,-2.13494 -2.134948,-5.14899 0,-3.028 2.134948,-5.16295 2.148903,-2.1489 5.162947,-2.1489 3.027999,0 5.162948,2.1489 2.134948,2.13495 2.134948,5.16295 0,3.01405 -2.134948,5.14899 -2.134949,2.14891 -5.162948,2.14891 z m 0,-13.85624 q -2.707058,0 -4.632698,1.91169 -1.92564,1.92564 -1.92564,4.64665 0,2.70706 1.92564,4.6327 1.92564,1.92564 4.632698,1.92564 2.721013,0 4.632699,-1.92564 1.92564,-1.92564 1.92564,-4.6327 0,-2.72101 -1.92564,-4.64665 -1.911686,-1.91169 -4.632699,-1.91169 z m 0,12.36317 q -2.400072,0 -4.102449,-1.70238 -1.716332,-1.70238 -1.716332,-4.10245 0,-2.41403 1.716332,-4.1164 1.702377,-1.70238 4.102449,-1.70238 2.414027,0 4.116404,1.70238 1.702377,1.70237 1.702377,4.1164 0,2.40007 -1.702377,4.10245 -1.702377,1.70238 -4.116404,1.70238 z m 0,-10.88405 q -2.093086,0 -3.586155,1.49307 -1.493068,1.47911 -1.493068,3.58615 0,2.09309 1.493068,3.58616 1.493069,1.47911 3.586155,1.47911 2.107041,0 3.586156,-1.47911 1.493068,-1.49307 1.493068,-3.58616 0,-2.10704 -1.493068,-3.58615 -1.479115,-1.49307 -3.586156,-1.49307 z"
         style="font-style:normal;font-variant:normal;font-weight:normal;font-stretch:normal;font-size:28.57761002px;line-height:7;font-family:'MACCOS Demo';-inkscape-font-specification:'MACCOS Demo';letter-spacing:2.0837841px;fill:#002780;fill-opacity:1;stroke-width:0.29768339"
         id="path865"
         inkscape:connector-curvature="0" />
      <path
         d="m 70.161169,174.62471 q -3.572201,0 -6.097859,-2.52566 -2.525658,-2.53961 -2.525658,-6.09786 v -10.82823 q 0,-0.44653 0.32094,-0.76747 0.32094,-0.33489 0.781419,-0.33489 h 0.01395 q 0.460479,0 0.781419,0.33489 0.334894,0.32094 0.334894,0.76747 v 10.82823 q 0,2.63729 1.869824,4.52107 1.869824,1.86982 4.521067,1.86982 h 2.386119 q 0.460479,0 0.795373,0.3349 0.32094,0.32094 0.32094,0.78142 0,0.46048 -0.32094,0.78142 -0.334894,0.33489 -0.795373,0.33489 z m -7.521158,-19.8006 q -0.362801,0 -0.362801,0.34885 v 10.82823 q 0,3.25126 2.316349,5.56761 2.302395,2.31635 5.56761,2.31635 h 2.386119 q 0.376756,0 0.376756,-0.37675 0,-0.37676 -0.376756,-0.37676 h -2.386119 q -2.958229,0 -5.051315,-2.09309 -2.093087,-2.09308 -2.093087,-5.03736 v -10.82823 q 0,-0.34885 -0.362802,-0.34885 z m 7.521158,16.82842 q -2.344257,0 -3.990818,-1.66052 -1.660516,-1.66051 -1.660516,-3.99082 v -10.82823 q 0,-0.44653 0.32094,-0.76747 0.32094,-0.33489 0.767466,-0.33489 h 0.02791 q 0.460479,0 0.781419,0.33489 0.32094,0.32094 0.32094,0.76747 v 10.82823 q 0,1.40935 1.004682,2.41403 1.004682,1.00468 2.42798,1.00468 h 2.386119 q 0.460479,0 0.795373,0.3349 0.32094,0.32094 0.32094,0.78141 0,0.46048 -0.32094,0.78142 -0.334894,0.3349 -0.795373,0.3349 z m -4.562928,-16.82842 q -0.348848,0 -0.348848,0.34885 v 10.82823 q 0,2.02332 1.437253,3.47453 1.437252,1.43725 3.474523,1.43725 h 2.386119 q 0.376756,0 0.376756,-0.37676 0,-0.37675 -0.376756,-0.37675 h -2.386119 q -1.730285,0 -2.944275,-1.21399 -1.227944,-1.22795 -1.227944,-2.94428 v -10.82823 q 0,-0.34885 -0.362802,-0.34885 z"
         style="font-style:normal;font-variant:normal;font-weight:normal;font-stretch:normal;font-size:28.57761002px;line-height:7;font-family:'MACCOS Demo';-inkscape-font-specification:'MACCOS Demo';letter-spacing:2.0837841px;fill:#002780;fill-opacity:1;stroke-width:0.29768339"
         id="path867"
         inkscape:connector-curvature="0" />
      <path
         d="m 81.663838,174.62471 q -0.46048,0 -0.795373,-0.33489 -0.32094,-0.32094 -0.32094,-0.78142 v -10.81428 q 0,-2.33031 1.660515,-3.99082 1.646562,-1.66052 3.990819,-1.66052 h 2.204718 q 0.460479,0 0.795373,0.3349 0.32094,0.32094 0.32094,0.78141 0,0.46048 -0.32094,0.79538 -0.334894,0.32094 -0.795373,0.32094 h -2.204718 q -1.423299,0 -2.427981,1.00468 -1.004681,1.00468 -1.004681,2.41403 v 10.81428 q 0,0.46048 -0.32094,0.78142 -0.32094,0.33489 -0.767466,0.33489 z m 4.535021,-16.82842 q -2.037271,0 -3.474524,1.43726 -1.437253,1.43725 -1.437253,3.46057 v 10.81428 q 0,0.37675 0.376756,0.37675 h 0.01395 q 0.348848,0 0.348848,-0.37675 v -10.81428 q 0,-1.71634 1.227944,-2.94428 1.213991,-1.21399 2.944276,-1.21399 h 2.204718 q 0.376755,0 0.376755,-0.37676 0,-0.3628 -0.376755,-0.3628 z m -7.507205,16.82842 q -0.460479,0 -0.795372,-0.33489 -0.32094,-0.32094 -0.32094,-0.78142 v -10.81428 q 0,-3.55825 2.525657,-6.08391 2.525658,-2.53961 6.09786,-2.53961 h 2.204718 q 0.460479,0 0.795373,0.33489 0.32094,0.32094 0.32094,0.78142 0,0.46048 -0.32094,0.79537 -0.334894,0.32094 -0.795373,0.32094 h -2.204718 q -2.651243,0 -4.521068,1.86983 -1.869824,1.88378 -1.869824,4.52107 v 10.81428 q 0,0.46048 -0.32094,0.78142 -0.32094,0.33489 -0.781419,0.33489 z m 7.507205,-19.8006 q -3.265216,0 -5.567611,2.3024 -2.316349,2.31634 -2.316349,5.56761 v 10.81428 q 0,0.37675 0.376755,0.37675 h 0.01395 q 0.348848,0 0.348848,-0.37675 v -10.81428 q 0,-2.94428 2.093087,-5.03737 2.093086,-2.09308 5.051316,-2.09308 h 2.204718 q 0.376755,0 0.376755,-0.37676 0,-0.3628 -0.376755,-0.3628 z m -1.911686,11.84687 q -0.446525,0 -0.767465,-0.33489 -0.32094,-0.3349 -0.32094,-0.79538 0,-0.46048 0.32094,-0.78142 0.32094,-0.32094 0.767465,-0.32094 h 4.116404 q 0.460479,0 0.795373,0.32094 0.32094,0.3349 0.32094,0.79538 0,0.46048 -0.32094,0.78142 -0.334894,0.33489 -0.795373,0.33489 z m 0,-1.49307 q -0.348848,0 -0.348848,0.3628 0,0.39071 0.348848,0.39071 h 4.116404 q 0.376755,0 0.376755,-0.37675 0,-0.37676 -0.376755,-0.37676 z m 0,-1.47911 q -0.446525,0 -0.767465,-0.3349 -0.32094,-0.33489 -0.32094,-0.79537 0,-0.46048 0.32094,-0.78142 0.32094,-0.32094 0.767465,-0.32094 h 4.116404 q 0.460479,0 0.795373,0.3349 0.32094,0.32094 0.32094,0.78141 0,0.46048 -0.32094,0.78142 -0.334894,0.3349 -0.795373,0.3349 z m 0,-1.49307 q -0.348848,0 -0.348848,0.3628 0,0.39071 0.348848,0.39071 h 4.116404 q 0.376755,0 0.376755,-0.37676 0,-0.37675 -0.376755,-0.37675 z"
         style="font-style:normal;font-variant:normal;font-weight:normal;font-stretch:normal;font-size:28.57761002px;line-height:7;font-family:'MACCOS Demo';-inkscape-font-specification:'MACCOS Demo';letter-spacing:2.0837841px;fill:#002780;fill-opacity:1;stroke-width:0.29768339"
         id="path869"
         inkscape:connector-curvature="0" />
      <path
         d="m 98.371327,174.62471 q -0.46048,0 -0.795373,-0.33489 -0.32094,-0.32094 -0.32094,-0.78142 v -18.33544 q 0,-0.46048 0.32094,-0.78142 0.32094,-0.32094 0.795373,-0.32094 0.460479,0 0.781419,0.33489 0.334893,0.32094 0.334893,0.76747 v 18.33544 q 0,0.46048 -0.334893,0.78142 -0.32094,0.33489 -0.781419,0.33489 z m 0,-19.8006 q -0.376756,0 -0.376756,0.34885 v 18.33544 q 0,0.37675 0.376756,0.37675 0.362801,0 0.362801,-0.37675 v -18.33544 q 0,-0.34885 -0.362801,-0.34885 z m -2.972184,19.8006 q -0.460479,0 -0.795372,-0.33489 -0.32094,-0.32094 -0.32094,-0.78142 v -18.33544 q 0,-0.44653 0.32094,-0.76747 0.320939,-0.33489 0.781419,-0.33489 0.460479,0 0.795372,0.33489 0.334894,0.32094 0.334894,0.76747 v 18.33544 q 0,0.46048 -0.334894,0.78142 -0.320939,0.33489 -0.781419,0.33489 z m -0.01395,-19.8006 q -0.362802,0 -0.362802,0.34885 v 18.33544 q 0,0.37675 0.376755,0.37675 0.362802,0 0.362802,-0.37675 v -18.33544 q 0,-0.34885 -0.376755,-0.34885 z"
         style="font-style:normal;font-variant:normal;font-weight:normal;font-stretch:normal;font-size:28.57761002px;line-height:7;font-family:'MACCOS Demo';-inkscape-font-specification:'MACCOS Demo';letter-spacing:2.0837841px;fill:#002780;fill-opacity:1;stroke-width:0.29768339"
         id="path871"
         inkscape:connector-curvature="0" />
      <path
         d="m 112.7206,174.62471 q -0.46048,0 -0.78142,-0.32094 -0.32094,-0.33489 -0.32094,-0.79537 v -13.8981 q 0,-0.37675 -0.36281,-0.37675 h -0.014 q -0.37676,0 -0.37676,0.37675 v 13.8981 q 0,0.46048 -0.32094,0.79537 -0.32093,0.32094 -0.78141,0.32094 -0.46048,0 -0.79538,-0.32094 -0.32094,-0.33489 -0.32094,-0.79537 v -14.23299 h -4.10245 q -0.46048,0 -0.79537,-0.3349 -0.32094,-0.32094 -0.32094,-0.78142 0,-0.46047 0.32094,-0.79537 0.33489,-0.32094 0.79537,-0.32094 h 13.39576 q 0.46048,0 0.79537,0.32094 0.32094,0.3349 0.32094,0.79537 0,0.46048 -0.32094,0.78142 -0.33489,0.3349 -0.79537,0.3349 h -4.10245 v 14.23299 q 0,0.46048 -0.32094,0.79537 -0.32094,0.32094 -0.79537,0.32094 z m -1.46517,-16.13072 q 0.46048,0 0.78142,0.32094 0.32094,0.33489 0.32094,0.79537 v 13.8981 q 0,0.37675 0.36281,0.37675 0.37675,0 0.37675,-0.37675 v -14.9865 h 4.84201 q 0.37675,0 0.37675,-0.36281 0,-0.37675 -0.37675,-0.37675 H 104.5436 q -0.37675,0 -0.37675,0.37675 0,0.36281 0.37675,0.36281 h 4.84201 v 14.9865 q 0,0.37675 0.37676,0.37675 0.3628,0 0.3628,-0.37675 v -13.8981 q 0,-0.46048 0.33489,-0.79537 0.32094,-0.32094 0.78142,-0.32094 z m -6.71183,-2.19077 q -0.46048,0 -0.79537,-0.33489 -0.32094,-0.32094 -0.32094,-0.78142 0,-0.46048 0.32094,-0.79537 0.33489,-0.32094 0.79537,-0.32094 h 13.39576 q 0.46048,0 0.79537,0.32094 0.32094,0.33489 0.32094,0.79537 0,0.46048 -0.32094,0.78142 -0.33489,0.33489 -0.79537,0.33489 z m 0,-1.49306 q -0.37675,0 -0.37675,0.37675 0,0.3628 0.37675,0.3628 h 13.39576 q 0.37675,0 0.37675,-0.3628 0,-0.37675 -0.37675,-0.37675 z"
         style="font-style:normal;font-variant:normal;font-weight:normal;font-stretch:normal;font-size:28.57761002px;line-height:7;font-family:'MACCOS Demo';-inkscape-font-specification:'MACCOS Demo';letter-spacing:2.0837841px;fill:#002780;fill-opacity:1;stroke-width:0.29768339"
         id="path873"
         inkscape:connector-curvature="0" />
      <path
         d="m 132.67934,173.88515 q 3.94895,0 6.73974,-2.79078 2.79078,-2.79078 2.79078,-6.75369 -0.0419,-1.11632 -0.1814,-1.85587 h -9.48866 q -0.15349,0 -0.25117,0.11163 -0.11163,0.11163 -0.11163,0.27908 0,0.13954 0.11163,0.25117 0.11163,0.11163 0.25117,0.11163 h 8.87469 q 0.0558,0.51629 0.0558,1.10236 0,3.64197 -2.58147,6.22344 -2.58148,2.58148 -6.20949,2.58148 -3.64197,0 -6.22345,-2.58148 -2.58147,-2.58147 -2.58147,-6.22344 0,-3.62802 2.58147,-6.20949 2.58148,-2.58148 6.22345,-2.58148 1.75819,0 3.37684,0.68375 1.63261,0.68374 2.87451,1.93959 0.0977,0.11163 0.25117,0.11163 0.13954,0 0.25117,-0.0977 0.0698,-0.0558 0.0977,-0.12558 0.0279,-0.0558 0.0419,-0.13954 0,-0.0837 -0.0279,-0.15349 -0.0279,-0.0558 -0.0837,-0.11164 -1.33958,-1.36748 -3.11172,-2.10704 -1.7582,-0.73955 -3.66988,-0.73955 -3.96291,0 -6.75369,2.79078 -2.79079,2.79078 -2.79079,6.73974 0,3.96291 2.79079,6.75369 2.79078,2.79078 6.75369,2.79078 z m 7.25603,-2.27448 q -3.00009,3.01404 -7.25603,3.01404 -4.2699,0 -7.26999,-3.01404 -3.01404,-3.0001 -3.01404,-7.26999 0,-4.25595 3.01404,-7.25604 3.00009,-3.01404 7.26999,-3.01404 2.06518,0 3.94895,0.79537 1.91169,0.79537 3.3629,2.27449 0.16744,0.15349 0.23721,0.3628 0.0837,0.20931 0.0837,0.43257 -0.014,0.25117 -0.11163,0.44653 -0.0837,0.19535 -0.26513,0.3628 -0.33489,0.29303 -0.78142,0.27908 -0.43257,-0.014 -0.75351,-0.32094 -1.13027,-1.15818 -2.62333,-1.7861 -1.47912,-0.61398 -3.09777,-0.61398 -3.33499,0 -5.6932,2.35822 -2.35821,2.35821 -2.35821,5.67924 0,3.33498 2.35821,5.69319 2.35821,2.35821 5.6932,2.35821 3.32103,0 5.67924,-2.35821 2.35821,-2.35821 2.35821,-5.69319 v -0.3628 h -8.17699 q -0.44653,0 -0.78142,-0.32094 -0.32094,-0.3349 -0.32094,-0.78142 0,-0.47444 0.32094,-0.79538 0.32094,-0.33489 0.78142,-0.33489 h 10.07472 l 0.0698,0.29303 q 0.13954,0.57211 0.19536,1.14422 0.0698,0.58607 0.0698,1.15818 0,4.26989 -3.01405,7.26999 z m -8.49793,-5.76297 q 0,-0.47443 0.32094,-0.79537 0.32094,-0.3349 0.78142,-0.3349 h 7.43743 l -0.0419,0.41862 q -0.29303,2.77683 -2.38612,4.64665 -2.07913,1.86983 -4.86991,1.86983 -3.028,0 -5.1769,-2.13495 -2.13495,-2.1489 -2.13495,-5.1769 0,-3.01405 2.13495,-5.16295 2.1489,-2.13495 5.1769,-2.13495 1.4233,0 2.74892,0.53025 1.31167,0.5442 2.34426,1.54888 0.16744,0.1535 0.25117,0.36281 0.0837,0.20931 0.0837,0.44652 -0.0139,0.23722 -0.11163,0.44653 -0.0977,0.19535 -0.26513,0.3628 -0.33489,0.29303 -0.76746,0.27908 -0.43257,0 -0.75351,-0.30699 -0.71165,-0.69769 -1.63261,-1.07445 -0.907,-0.3628 -1.89773,-0.3628 -2.10704,0 -3.60011,1.47911 -1.47912,1.49307 -1.47912,3.58616 0,2.10704 1.47912,3.60011 1.49307,1.47911 3.60011,1.47911 1.49307,0 2.74892,-0.80933 0.99073,-0.64188 1.6047,-1.66051 h -4.49316 q -0.44653,0 -0.78142,-0.32094 -0.32094,-0.33489 -0.32094,-0.78142 z m 0.85119,-0.27908 q -0.11163,0.11163 -0.11163,0.27908 0,0.13954 0.11163,0.25117 0.11163,0.11163 0.25117,0.11163 h 5.67924 l -0.23722,0.5163 q -0.69769,1.57679 -2.1489,2.5117 -1.43725,0.93491 -3.15358,0.93491 -2.41403,0 -4.11641,-1.71633 -1.71633,-1.70238 -1.71633,-4.1164 0,-2.40008 1.71633,-4.10245 1.70238,-1.71633 4.11641,-1.71633 1.13026,0 2.17681,0.43257 1.0605,0.43257 1.86982,1.22794 0.11163,0.0977 0.25117,0.0977 0.13954,0 0.25117,-0.0977 0.0698,-0.0558 0.0977,-0.12558 0.0419,-0.0698 0.0419,-0.13954 0,-0.0837 -0.0279,-0.1535 -0.0279,-0.0558 -0.0837,-0.11163 -0.92096,-0.907 -2.10704,-1.38143 -1.18608,-0.48839 -2.46984,-0.48839 -2.72101,0 -4.64665,1.92564 -1.92564,1.92564 -1.92564,4.6327 0,2.72101 1.92564,4.64665 1.92564,1.92564 4.64665,1.92564 2.5117,0 4.38153,-1.67447 1.70237,-1.53493 2.07913,-3.78151 h -6.6002 q -0.15349,0 -0.25117,0.11163 z"
         style="font-style:normal;font-variant:normal;font-weight:normal;font-stretch:normal;font-size:28.57761002px;line-height:7;font-family:'MACCOS Demo';-inkscape-font-specification:'MACCOS Demo';letter-spacing:2.0837841px;fill:#002780;fill-opacity:1;stroke-width:0.29768339"
         id="path875"
         inkscape:connector-curvature="0" />
      <path
         d="m 156.15447,174.62471 q -3.5722,0 -6.09786,-2.52566 -2.52566,-2.53961 -2.52566,-6.09786 v -10.81428 q 0,-0.46048 0.32094,-0.78142 0.3349,-0.33489 0.79538,-0.33489 0.46048,0 0.78142,0.33489 0.33489,0.32094 0.33489,0.78142 v 10.81428 q 0,2.63729 1.86982,4.52107 1.86983,1.86982 4.52107,1.86982 2.63729,0 4.52107,-1.86982 1.86982,-1.88378 1.86982,-4.52107 v -10.81428 q 0,-0.46048 0.3349,-0.78142 0.32094,-0.33489 0.78142,-0.33489 0.46047,0 0.78141,0.33489 0.3349,0.32094 0.3349,0.78142 v 10.81428 q 0,3.55825 -2.52566,6.09786 -2.53961,2.52566 -6.09786,2.52566 z m -7.5072,-19.8006 q -0.37676,0 -0.37676,0.3628 v 10.81428 q 0,3.25126 2.31635,5.56761 2.3024,2.31635 5.56761,2.31635 3.25126,0 5.56761,-2.31635 2.31635,-2.31635 2.31635,-5.56761 v -10.81428 q 0,-0.3628 -0.37675,-0.3628 -0.37676,0 -0.37676,0.3628 v 10.81428 q 0,2.94428 -2.09309,5.03736 -2.09308,2.09309 -5.03736,2.09309 -2.95823,0 -5.05131,-2.09309 -2.09309,-2.09308 -2.09309,-5.03736 v -10.81428 q 0,-0.3628 -0.3628,-0.3628 z m 7.5072,16.82842 q -2.34426,0 -3.99082,-1.66052 -1.66051,-1.66051 -1.66051,-3.99082 v -10.81428 q 0,-0.46048 0.32094,-0.78142 0.33489,-0.33489 0.79537,-0.33489 0.46048,0 0.78142,0.33489 0.33489,0.32094 0.33489,0.78142 v 10.81428 q 0,1.40935 0.99073,2.41403 1.00468,1.00468 2.42798,1.00468 1.40935,0 2.41403,-1.00468 1.00468,-1.00468 1.00468,-2.41403 v -10.81428 q 0,-0.46048 0.33489,-0.78142 0.32094,-0.33489 0.78142,-0.33489 0.46048,0 0.79537,0.33489 0.32094,0.32094 0.32094,0.78142 v 10.81428 q 0,2.33031 -1.66051,3.99082 -1.66052,1.66052 -3.99082,1.66052 z m -4.53502,-16.82842 q -0.37676,0 -0.37676,0.3628 v 10.81428 q 0,2.02332 1.43726,3.47453 1.43725,1.43725 3.47452,1.43725 2.02332,0 3.47452,-1.43725 1.43726,-1.45121 1.43726,-3.47453 v -10.81428 q 0,-0.3628 -0.37676,-0.3628 -0.37675,0 -0.37675,0.3628 v 10.81428 q 0,1.71633 -1.21399,2.94428 -1.22795,1.21399 -2.94428,1.21399 -1.73028,0 -2.94427,-1.21399 -1.22795,-1.22795 -1.22795,-2.94428 v -10.81428 q 0,-0.3628 -0.3628,-0.3628 z"
         style="font-style:normal;font-variant:normal;font-weight:normal;font-stretch:normal;font-size:28.57761002px;line-height:7;font-family:'MACCOS Demo';-inkscape-font-specification:'MACCOS Demo';letter-spacing:2.0837841px;fill:#002780;fill-opacity:1;stroke-width:0.29768339"
         id="path877"
         inkscape:connector-curvature="0" />
      <path
         d="m 174.2992,174.62471 q -0.46048,0 -0.79537,-0.33489 -0.32094,-0.32094 -0.32094,-0.78142 v -18.33544 q 0,-0.46048 0.32094,-0.78142 0.32094,-0.32094 0.79537,-0.32094 0.46048,0 0.78142,0.33489 0.33489,0.32094 0.33489,0.76747 v 18.33544 q 0,0.46048 -0.33489,0.78142 -0.32094,0.33489 -0.78142,0.33489 z m 0,-19.8006 q -0.37676,0 -0.37676,0.34885 v 18.33544 q 0,0.37675 0.37676,0.37675 0.3628,0 0.3628,-0.37675 v -18.33544 q 0,-0.34885 -0.3628,-0.34885 z m -2.97218,19.8006 q -0.46048,0 -0.79538,-0.33489 -0.32094,-0.32094 -0.32094,-0.78142 v -18.33544 q 0,-0.44653 0.32094,-0.76747 0.32094,-0.33489 0.78142,-0.33489 0.46048,0 0.79537,0.33489 0.3349,0.32094 0.3349,0.76747 v 18.33544 q 0,0.46048 -0.3349,0.78142 -0.32094,0.33489 -0.78141,0.33489 z m -0.014,-19.8006 q -0.3628,0 -0.3628,0.34885 v 18.33544 q 0,0.37675 0.37676,0.37675 0.3628,0 0.3628,-0.37675 v -18.33544 q 0,-0.34885 -0.37676,-0.34885 z"
         style="font-style:normal;font-variant:normal;font-weight:normal;font-stretch:normal;font-size:28.57761002px;line-height:7;font-family:'MACCOS Demo';-inkscape-font-specification:'MACCOS Demo';letter-spacing:2.0837841px;fill:#002780;fill-opacity:1;stroke-width:0.29768339"
         id="path879"
         inkscape:connector-curvature="0" />
      <path
         d="m 184.60184,172.00137 q 0,0.46048 -0.32094,0.79538 -0.33489,0.32094 -0.79537,0.32094 -0.46048,0 -0.78142,-0.32094 -0.3349,-0.3349 -0.3349,-0.79538 V 160.4894 q 0.014,-2.02332 1.46517,-3.47453 1.4512,-1.4512 3.50243,-1.4512 h 0.53025 q 3.62801,0 6.20949,2.58147 2.56752,2.56752 2.56752,6.20949 0,3.62802 -2.56752,6.20949 -2.58148,2.56752 -6.20949,2.56752 h -0.20931 q -0.3628,0 -0.3628,0.37676 0,0.37675 0.3628,0.37675 h 0.20931 q 3.935,0 6.72578,-2.80473 2.80474,-2.79079 2.80474,-6.72579 0,-3.94896 -2.80474,-6.73974 -2.79078,-2.79078 -6.72578,-2.79078 h -0.53025 q -2.35821,0 -4.01873,1.66052 -1.67447,1.67446 -1.68842,4.01872 v 11.51198 q 0,0.76746 0.5442,1.32562 0.5442,0.5442 1.31167,0.5442 0.76746,0 1.31166,-0.5442 0.54421,-0.55816 0.54421,-1.32562 V 160.4894 q 0.0139,-0.79537 0.60002,-1.38144 0.57211,-0.57211 1.39539,-0.57211 h 0.53025 q 2.40007,0 4.10245,1.70238 1.71633,1.70237 1.71633,4.1164 0,2.40007 -1.71633,4.10245 -1.70238,1.70238 -4.10245,1.70238 h -0.20931 q -0.3628,0 -0.3628,0.37675 0,0.37676 0.3628,0.37676 h 0.20931 q 2.70705,0 4.63269,-1.92564 1.92564,-1.92564 1.92564,-4.6327 0,-2.72101 -1.92564,-4.64665 -1.92564,-1.92564 -4.63269,-1.92564 h -0.53025 v 0.0139 q -1.13027,0 -1.92564,0.79538 -0.79538,0.79537 -0.80933,1.91168 z m -0.73956,-11.48406 q 0.0419,-1.47912 1.01864,-2.45589 1.01863,-1.01864 2.45589,-1.01864 h 0.53025 q 3.01404,0 5.14899,2.1489 2.1489,2.13495 2.1489,5.16295 0,3.01405 -2.1489,5.14899 -2.13495,2.14891 -5.14899,2.14891 h -0.20931 q -0.46048,0 -0.78142,-0.3349 -0.32094,-0.32094 -0.32094,-0.78142 0,-0.46047 0.32094,-0.78141 0.32094,-0.3349 0.78142,-0.3349 h 0.20931 q 2.09308,0 3.58615,-1.47911 1.47912,-1.49307 1.47912,-3.58616 0,-2.10704 -1.47912,-3.58615 -1.49307,-1.49307 -3.58615,-1.49307 h -0.53025 q -0.5163,0 -0.8791,0.3628 -0.3628,0.3628 -0.3628,0.86514 v 11.51198 q 0,1.0884 -0.76747,1.84191 -0.76746,0.76747 -1.84191,0.76747 -1.07445,0 -1.82797,-0.76747 -0.76746,-0.75351 -0.76746,-1.84191 V 160.4894 q 0.014,-2.63729 1.89773,-4.52107 1.88378,-1.89773 4.54898,-1.89773 h 0.53025 q 4.24198,0 7.25603,3.01404 3.01404,3.01405 3.01404,7.26999 0,4.24199 -3.01404,7.25604 -3.01405,3.01404 -7.25603,3.01404 h -0.20931 q -0.46048,0 -0.78142,-0.33489 -0.32094,-0.32094 -0.32094,-0.78142 0,-0.46048 0.32094,-0.78142 0.32094,-0.3349 0.78142,-0.3349 h 0.20931 q 3.32103,0 5.67924,-2.35821 2.35821,-2.35821 2.35821,-5.67924 0,-3.33498 -2.35821,-5.69319 -2.35821,-2.35822 -5.67924,-2.35822 h -0.53025 q -1.74424,0 -2.97219,1.22795 -1.24189,1.2419 -1.24189,2.97218 v 11.49802 q 0,0.37676 0.3628,0.37676 0.37675,0 0.37675,-0.37676 z"
         style="font-style:normal;font-variant:normal;font-weight:normal;font-stretch:normal;font-size:28.57761002px;line-height:7;font-family:'MACCOS Demo';-inkscape-font-specification:'MACCOS Demo';letter-spacing:2.0837841px;fill:#002780;fill-opacity:1;stroke-width:0.29768339"
         id="path881"
         inkscape:connector-curvature="0" />
      <path
         d="m 212.34688,157.04278 q 1.22794,0 2.38612,0.40467 1.17212,0.40466 2.13494,1.17212 0.41862,0.32094 0.41862,0.79538 0.014,0.43257 -0.29303,0.79537 -0.27908,0.32094 -0.66979,0.39071 -0.44652,0.0698 -0.83723,-0.23722 -0.66979,-0.53025 -1.47912,-0.80932 -0.79537,-0.27908 -1.66051,-0.27908 -2.10704,0 -3.60011,1.47911 -1.47912,1.49307 -1.47912,3.60011 0,2.09309 1.47912,3.58616 1.49307,1.47911 3.60011,1.47911 0.86514,0 1.66051,-0.27908 0.80933,-0.27908 1.47912,-0.80932 0.43257,-0.3349 0.907,-0.22327 0.43257,0.11163 0.6977,0.50234 0.23721,0.34885 0.19535,0.73956 -0.0419,0.43257 -0.41862,0.72561 -0.96282,0.76746 -2.13494,1.17212 -1.15818,0.40467 -2.38612,0.40467 -3.028,0 -5.1769,-2.13495 -2.13495,-2.1489 -2.13495,-5.16295 0,-3.028 2.13495,-5.1769 2.1489,-2.13495 5.1769,-2.13495 z m 2.1489,1.10236 q -1.03259,-0.3628 -2.1489,-0.3628 -2.72102,0 -4.64666,1.92564 -1.92564,1.92564 -1.92564,4.64665 0,2.70706 1.92564,4.6327 1.92564,1.92564 4.64666,1.92564 1.11631,0 2.1489,-0.3628 1.04654,-0.3628 1.91169,-1.04655 0.27907,-0.22326 0.0558,-0.51629 -0.23722,-0.29303 -0.51629,-0.0698 -0.76747,0.61397 -1.70238,0.93491 -0.92096,0.32094 -1.89773,0.32094 -2.41403,0 -4.11641,-1.71633 -1.70237,-1.70238 -1.70237,-4.10245 0,-2.41403 1.70237,-4.1164 1.70238,-1.71633 4.11641,-1.71633 0.97677,0 1.89773,0.32094 0.93491,0.32094 1.70238,0.93491 0.27907,0.22326 0.51629,-0.0837 0.22326,-0.27908 -0.0558,-0.50235 -0.86515,-0.68374 -1.91169,-1.04654 z m -2.1489,-4.07454 q 1.84191,0 3.54429,0.62792 1.71633,0.64188 3.12568,1.82797 0.39071,0.33489 0.39071,0.79537 0,0.41862 -0.29304,0.76747 -0.29303,0.33489 -0.69769,0.40466 -0.46048,0.0698 -0.85119,-0.27908 -1.10236,-0.92096 -2.44193,-1.4233 -1.33958,-0.48839 -2.77683,-0.48839 -3.33499,0 -5.6932,2.35822 -2.35821,2.35821 -2.35821,5.69319 0,3.32103 2.35821,5.67924 2.35821,2.35821 5.6932,2.35821 1.43725,0 2.77683,-0.48838 1.33957,-0.50234 2.44193,-1.4233 0.39071,-0.3349 0.85119,-0.27908 0.40466,0.0558 0.69769,0.40466 0.29304,0.3349 0.29304,0.75351 0,0.47444 -0.39071,0.80933 -1.40935,1.18608 -3.12568,1.82796 -1.70238,0.62793 -3.54429,0.62793 -4.25595,0 -7.26999,-3.01404 -3.01405,-3.0001 -3.01405,-7.25604 0,-4.2699 3.01405,-7.26999 3.01404,-3.01404 7.26999,-3.01404 z m 3.29312,1.32562 q -1.59075,-0.58606 -3.29312,-0.58606 -3.94896,0 -6.7537,2.79078 -2.79078,2.79078 -2.79078,6.75369 0,3.94896 2.79078,6.73974 2.80474,2.79078 6.7537,2.79078 1.70237,0 3.29312,-0.58606 1.59075,-0.58607 2.88846,-1.70238 0.27908,-0.22326 0.0279,-0.51629 -0.23722,-0.26513 -0.5163,-0.0419 -1.18608,1.01864 -2.66519,1.56284 -1.46516,0.54421 -3.028,0.54421 -3.64197,0 -6.22345,-2.58148 -2.56752,-2.58147 -2.56752,-6.20949 0,-3.64197 2.56752,-6.22344 2.58148,-2.58148 6.22345,-2.58148 1.56284,0 3.028,0.54421 1.47911,0.5442 2.66519,1.56283 0.27908,0.23722 0.53025,-0.0558 0.22326,-0.27908 -0.0419,-0.50234 -1.29771,-1.11632 -2.88846,-1.70238 z m -1.11631,9.32121 q 0.51629,0 0.80932,0.3349 0.27908,0.30698 0.27908,0.75351 0.014,0.46048 -0.26512,0.78142 -0.30699,0.3628 -0.82328,0.3628 h -5.93042 q -0.7256,-0.78142 -0.83723,-2.23263 z m -5.98623,0.73956 q 0.0837,0.39071 0.27908,0.75351 h 5.70715 q 0.34884,0 0.3628,-0.3628 0.0139,-0.39071 -0.3628,-0.39071 z m 5.98623,-2.21867 q 0.3628,0 0.3628,-0.37676 0,-0.37675 -0.3628,-0.37675 h -5.70715 q -0.19536,0.3628 -0.30699,0.75351 z m -6.76765,0.73956 q 0.15349,-1.40935 0.83723,-2.23263 h 5.93042 q 0.53025,0 0.82328,0.3628 0.27908,0.30699 0.26512,0.76747 -0.0139,0.44652 -0.27908,0.75351 -0.30698,0.34885 -0.80932,0.34885 z"
         style="font-style:normal;font-variant:normal;font-weight:normal;font-stretch:normal;font-size:28.57761002px;line-height:7;font-family:'MACCOS Demo';-inkscape-font-specification:'MACCOS Demo';letter-spacing:2.0837841px;fill:#002780;fill-opacity:1;stroke-width:0.29768339"
         id="path883"
         inkscape:connector-curvature="0" />
    </g>
    <flowRoot
       xml:space="preserve"
       id="flowRoot832"
       style="font-style:normal;font-weight:normal;font-size:40px;line-height:1.25;font-family:sans-serif;letter-spacing:0px;word-spacing:0px;fill:#000000;fill-opacity:1;stroke:none"><flowRegion
         id="flowRegion834"><rect
           id="rect836"
           width="721.2489"
           height="773.77686"
           x="58.588848"
           y="29.534639" /></flowRegion><flowPara
         id="flowPara838" /></flowRoot>  </g>
  <g
     inkscape:groupmode="layer"
     id="layer1"
     inkscape:label="Layer 6"
     transform="translate(0,-85.333322)">
    <g
       style="display:inline"
       id="g848"
       transform="matrix(1.0591685,0,0,1.0658927,-4.9615972,51.856554)">
      <g
         id="g857"
         transform="translate(0.60972663,-2.0847103)">
        <path
           style="display:inline;fill:#002780;fill-opacity:0.99607843;stroke:#000000;stroke-width:2.20291686;stroke-linecap:butt;stroke-linejoin:miter;stroke-miterlimit:4;stroke-dasharray:none;stroke-opacity:1"
           d="m 153.29089,75.712442 0.36016,-5.173083 -3.24135,-6.281598 -5.40224,7.390114 -6.84284,5.54259 -5.40223,8.129126 -5.04208,2.586542 0.72029,2.956041 3.24134,1.847533 L 127,101.20833 c -3.15599,9.30953 25.9438,8.66805 28.81194,-0.739 l -1.4406,-11.454684 0.72029,-8.868135 4.32179,-5.173084 -1.44059,-1.478025 -1.44059,-0.739008 z"
           id="path4619-3"
           inkscape:connector-curvature="0"
           sodipodi:nodetypes="ccccccccccccccccc" />
        <path
           inkscape:connector-curvature="0"
           transform="matrix(0.97467804,0,0,1,-9.1542779,-0.75078667)"
           style="fill:#002780;fill-opacity:0.99607843;stroke:#000000;stroke-width:1.74255419;stroke-linecap:butt;stroke-linejoin:miter;stroke-miterlimit:4;stroke-dasharray:none;stroke-opacity:1"
           d="m 22.308179,151.61845 c 76.975973,-9.42716 66.066252,-16.34063 38.79204,-21.33368 -27.274239,-4.99307 100.232821,-16.13143 42.956921,-23.55701 -57.275896,-7.425579 13.6371,-13.442858 13.6371,-13.442858 0,0 23.86498,-0.128025 23.18313,2.048437 -0.68186,2.176462 -5.60874,1.336002 21.81939,10.882311 27.95609,9.73007 -47.72989,17.4117 -23.18311,27.52585 24.54682,10.11415 -119.134022,32.36158 -119.134022,32.36158 z"
           id="path4657" />
        <g
           style="display:inline"
           id="g873"
           transform="matrix(0.60397938,0,0,0.61967065,131.34229,-87.606516)">
          <g
             aria-label="S"
             transform="scale(1.0882635,0.91889509)"
             style="font-style:normal;font-variant:normal;font-weight:normal;font-stretch:normal;font-size:93.29734802px;line-height:1.25;font-family:'MACCOS Demo';-inkscape-font-specification:'MACCOS Demo';letter-spacing:0px;word-spacing:0px;fill:#d00e20;fill-opacity:1;stroke:none;stroke-width:0.48592371"
             id="text844">
            <path
               inkscape:connector-curvature="0"
               d="m 66.660686,292.96783 q -7.83552,0 -13.80327,-5.1933 -5.96775,-5.19331 -6.969968,-12.93772 -0.227777,-1.64 0.819996,-2.86999 1.138884,-1.27555 2.778876,-1.27555 1.366661,0 2.368878,0.91111 1.002218,0.9111 1.229995,2.23221 0.637775,5.05664 4.555534,8.47329 3.872205,3.3711 9.019959,3.3711 5.694418,0 9.703288,-4.00887 4.008871,-4.05443 4.008871,-9.74885 0,-6.33219 -3.188874,-9.3844 -2.232212,-2.1411 -7.425522,-3.4622 -0.637775,-0.18222 -2.141101,-0.54667 -5.96775,-1.41221 -8.291073,-3.05221 -4.00887,-2.82443 -4.00887,-8.60996 0,-4.64664 3.32554,-7.97218 3.32554,-3.32554 8.017741,-3.32554 3.689983,0 6.65108,2.1411 2.961098,2.1411 4.099981,5.64886 0.455554,1.82222 -0.546664,3.27999 -0.956662,1.3211 -2.915542,1.45777 -2.64221,0 -3.462206,-2.45999 -0.911107,-2.77888 -3.826649,-2.77888 -1.685548,0 -2.869987,1.18444 -1.184439,1.18444 -1.184439,2.82443 0,2.00444 2.004435,3.14332 1.412216,0.77444 5.694418,1.86777 5.87664,1.50333 8.701071,3.05221 8.655516,4.73776 8.655516,16.99214 0,8.70108 -6.149972,14.85105 -6.149971,6.19552 -14.851042,6.19552 z M 49.440765,273.15126 q -1.321105,0.13667 -1.184439,1.3211 0.911107,6.87886 6.195527,11.47995 5.28442,4.60109 12.208833,4.60109 7.698853,0 13.119939,-5.46664 5.466642,-5.46664 5.466642,-13.1655 0,-10.84217 -7.425522,-14.89659 -2.551099,-1.36666 -8.108851,-2.82443 -4.828867,-1.18444 -6.605525,-2.27777 -2.915542,-1.77666 -2.915542,-5.05665 0,-2.64221 1.913324,-4.55553 1.867769,-1.86777 4.555535,-1.86777 4.646645,0 6.104416,4.41887 0.501109,1.18444 1.822214,0.77444 0.865552,-0.36444 0.501109,-1.54888 -0.911107,-2.73332 -3.23443,-4.41887 -2.323322,-1.63999 -5.193309,-1.63999 -3.689983,0 -6.286638,2.59665 -2.596655,2.59666 -2.596655,6.24108 0,4.60109 3.006653,6.69664 1.867769,1.27555 7.379966,2.64221 1.457771,0.31889 2.232212,0.54666 5.831084,1.45778 8.60996,4.23665 3.82665,3.73554 3.82665,10.93328 0,6.69664 -4.737756,11.4344 -4.737756,4.73775 -11.434392,4.73775 -6.058861,0 -10.614396,-3.96331 -4.60109,-4.00887 -5.375531,-9.93107 -0.136666,-1.04777 -1.229994,-1.04777 z m 17.219921,10.11329 q -3.644428,0 -6.651081,-2.14111 -2.961097,-2.1411 -4.145536,-5.64886 -0.501109,-1.82221 0.592219,-3.27998 1.002218,-1.36666 2.961098,-1.50333 2.596655,0 3.416651,2.5511 0.911107,2.73332 3.826649,2.73332 1.685548,0 2.869987,-1.18444 1.138883,-1.18444 1.138883,-2.86999 0,-2.00443 -1.95888,-3.09776 -1.412215,-0.81999 -5.648863,-1.86777 -9.475511,-2.41443 -13.074384,-6.37775 -4.327758,-4.87442 -4.327758,-13.71216 0,-8.65551 6.149972,-14.80548 6.149972,-6.19553 14.851043,-6.19553 7.835519,0 13.80327,5.19331 5.922194,5.19331 7.015523,12.93772 0.136666,1.7311 -0.865552,2.86998 -1.093328,1.23 -2.733321,1.23 -1.412215,0 -2.414433,-0.91111 -1.047773,-0.86555 -1.229994,-2.18665 -0.68333,-5.05665 -4.555535,-8.4733 -3.872204,-3.37109 -9.019958,-3.37109 -5.694418,0 -9.703289,4.00887 -4.054426,4.05442 -4.054426,9.70328 0,6.96997 4.008871,10.06774 2.368878,1.82221 8.792182,3.37109 5.922194,1.41222 8.291072,3.09777 3.963316,2.77887 3.963316,8.51884 0,4.69221 -3.325541,8.01775 -3.279985,3.32554 -7.972185,3.32554 z m -7.653298,-10.06774 q -1.184439,0.45556 -0.819997,1.54889 0.911107,2.73332 3.23443,4.41886 2.368878,1.68555 5.238865,1.68555 3.689983,0 6.286638,-2.64221 2.596654,-2.59665 2.596654,-6.28664 0,-4.55553 -3.006653,-6.65108 -1.913324,-1.27555 -7.425521,-2.59665 -6.878857,-1.68555 -9.657733,-3.78109 -4.965533,-3.87221 -4.965533,-12.02662 0,-6.65108 4.737756,-11.38883 4.737756,-4.73776 11.434392,-4.73776 6.058861,0 10.614395,3.96332 4.555535,4.00887 5.375531,9.97662 0.227777,1.09333 1.366661,0.95666 1.138883,-0.18222 1.047772,-1.36666 -0.956662,-6.78775 -6.195527,-11.38884 -5.28442,-4.55553 -12.208832,-4.55553 -7.698854,0 -13.11994,5.42109 -5.466641,5.46664 -5.466641,13.11993 0,7.92663 3.735538,12.07217 3.097764,3.41665 11.84439,5.64886 4.783311,1.23 6.55997,2.27777 2.915542,1.77666 2.915542,5.05664 0,2.68777 -1.913325,4.60109 -1.867769,1.86777 -4.555534,1.86777 -4.646645,0 -6.149972,-4.41886 -0.364443,-1.04778 -1.503326,-0.77445 z"
               style="font-style:normal;font-variant:normal;font-weight:normal;font-stretch:normal;font-size:93.29734802px;font-family:'MACCOS Demo';-inkscape-font-specification:'MACCOS Demo';fill:#d00e20;fill-opacity:1;stroke-width:0.48592371"
               id="path857" />
          </g>
          <g
             aria-label="S"
             transform="matrix(0,-0.90083775,1.1100778,0,0,0)"
             inkscape:transform-center-x="-60.700852"
             inkscape:transform-center-y="24.588804"
             style="font-style:normal;font-variant:normal;font-weight:normal;font-stretch:normal;font-size:93.29734039px;line-height:1.25;font-family:'MACCOS Demo';-inkscape-font-specification:'MACCOS Demo';letter-spacing:0px;word-spacing:0px;fill:#fcd20e;fill-opacity:0.96862745;stroke:none;stroke-width:0.48592371"
             id="text844-3">
            <path
               inkscape:connector-curvature="0"
               d="m -268.47182,99.828865 q -7.83551,0 -13.80326,-5.193309 -5.96775,-5.193309 -6.96997,-12.937717 -0.22778,-1.639992 0.81999,-2.869987 1.13889,-1.275549 2.77888,-1.275549 1.36666,0 2.36888,0.911107 1.00222,0.911106 1.22999,2.232211 0.63778,5.056643 4.55554,8.473294 3.8722,3.371095 9.01995,3.371095 5.69442,0 9.70329,-4.00887 4.00887,-4.054425 4.00887,-9.748843 0,-6.332192 -3.18887,-9.3844 -2.23221,-2.141101 -7.42552,-3.462206 -0.63778,-0.182222 -2.1411,-0.546664 -5.96775,-1.412216 -8.29108,-3.052208 -4.00887,-2.824432 -4.00887,-8.60996 0,-4.646645 3.32554,-7.972185 3.32554,-3.32554 8.01774,-3.32554 3.68999,0 6.65108,2.141101 2.9611,2.141101 4.09998,5.648863 0.45556,1.822213 -0.54666,3.279984 -0.95666,1.321105 -2.91554,1.457771 -2.64221,0 -3.46221,-2.459988 -0.9111,-2.778876 -3.82665,-2.778876 -1.68554,0 -2.86998,1.184439 -1.18444,1.184439 -1.18444,2.824431 0,2.004435 2.00443,3.143319 1.41222,0.77444 5.69442,1.867769 5.87664,1.503326 8.70107,3.052207 8.65552,4.737756 8.65552,16.992143 0,8.70107 -6.14997,14.851042 -6.14998,6.195526 -14.85105,6.195526 z m -17.21992,-19.816574 q -1.3211,0.136666 -1.18443,1.321105 0.9111,6.878857 6.19552,11.479946 5.28442,4.60109 12.20883,4.60109 7.69886,0 13.11994,-5.466641 5.46664,-5.466641 5.46664,-13.165494 0,-10.842171 -7.42552,-14.896597 -2.5511,-1.36666 -8.10885,-2.824431 -4.82886,-1.184439 -6.60552,-2.277767 -2.91554,-1.776658 -2.91554,-5.056643 0,-2.64221 1.91332,-4.555534 1.86777,-1.867769 4.55553,-1.867769 4.64665,0 6.10442,4.418868 0.50111,1.184439 1.82221,0.774441 0.86556,-0.364443 0.50111,-1.548882 -0.9111,-2.73332 -3.23443,-4.418868 -2.32332,-1.639992 -5.19331,-1.639992 -3.68998,0 -6.28663,2.596654 -2.59666,2.596655 -2.59666,6.241082 0,4.601089 3.00665,6.696635 1.86777,1.27555 7.37997,2.64221 1.45777,0.318887 2.23221,0.546664 5.83109,1.457771 8.60996,4.236647 3.82665,3.735538 3.82665,10.933282 0,6.696635 -4.73776,11.434391 -4.73775,4.737755 -11.43439,4.737755 -6.05886,0 -10.61439,-3.963314 -4.60109,-4.00887 -5.37553,-9.931065 -0.13667,-1.047773 -1.23,-1.047773 z m 17.21992,10.113286 q -3.64442,0 -6.65108,-2.141101 -2.96109,-2.141101 -4.14553,-5.648862 -0.50111,-1.822214 0.59222,-3.279985 1.00221,-1.36666 2.96109,-1.503326 2.59666,0 3.41666,2.551099 0.9111,2.73332 3.82664,2.73332 1.68555,0 2.86999,-1.184438 1.13888,-1.184439 1.13888,-2.869987 0,-2.004435 -1.95888,-3.097763 -1.41221,-0.819996 -5.64886,-1.867769 -9.47551,-2.414433 -13.07438,-6.377748 -4.32776,-4.874422 -4.32776,-13.712158 0,-8.655515 6.14997,-14.805486 6.14997,-6.195527 14.85104,-6.195527 7.83552,0 13.80327,5.193309 5.9222,5.193309 7.01553,12.937717 0.13666,1.731103 -0.86556,2.869987 -1.09332,1.229994 -2.73332,1.229994 -1.41221,0 -2.41443,-0.911107 -1.04777,-0.865551 -1.22999,-2.186656 -0.68333,-5.056643 -4.55554,-8.473294 -3.8722,-3.371095 -9.01996,-3.371095 -5.69441,0 -9.70328,4.00887 -4.05443,4.054426 -4.05443,9.703288 0,6.969967 4.00887,10.067731 2.36888,1.822213 8.79218,3.371095 5.9222,1.412215 8.29107,3.097763 3.96332,2.778876 3.96332,8.518849 0,4.6922 -3.32554,8.01774 -3.27999,3.32554 -7.97219,3.32554 z m -7.65329,-10.06773 q -1.18444,0.455553 -0.82,1.548881 0.91111,2.733321 3.23443,4.418868 2.36888,1.685548 5.23886,1.685548 3.68999,0 6.28664,-2.64221 2.59666,-2.596654 2.59666,-6.286637 0,-4.555534 -3.00666,-6.65108 -1.91332,-1.275549 -7.42552,-2.596654 -6.87885,-1.685548 -9.65773,-3.781094 -4.96553,-3.872204 -4.96553,-12.02661 0,-6.65108 4.73775,-11.388836 4.73776,-4.737755 11.43439,-4.737755 6.05886,0 10.6144,3.963315 4.55553,4.00887 5.37553,9.97662 0.22778,1.093328 1.36666,0.956662 1.13888,-0.182222 1.04777,-1.366661 -0.95666,-6.787745 -6.19552,-11.388835 -5.28442,-4.555534 -12.20884,-4.555534 -7.69885,0 -13.11993,5.421085 -5.46665,5.466642 -5.46665,13.119939 0,7.926629 3.73554,12.072166 3.09777,3.41665 11.84439,5.648862 4.78331,1.229994 6.55997,2.277767 2.91554,1.776658 2.91554,5.056643 0,2.687765 -1.91332,4.60109 -1.86777,1.867769 -4.55554,1.867769 -4.64664,0 -6.14997,-4.418869 -0.36444,-1.047772 -1.50332,-0.77444 z"
               style="font-style:normal;font-variant:normal;font-weight:normal;font-stretch:normal;font-size:93.29734039px;font-family:'MACCOS Demo';-inkscape-font-specification:'MACCOS Demo';fill:#fcd20e;fill-opacity:0.96862745;stroke-width:0.48592371"
               id="path860" />
          </g>
        </g>
      </g>
    </g>
  </g>
</svg>
